<svg xmlns="http://www.w3.org/2000/svg" xmlns:xlink="http://www.w3.org/1999/xlink" id="Layer_1" x="0" y="0" version="1.1" viewBox="0 0 864 252" style="enable-background:new 0 0 864 252" xml:space="preserve"><style type="text/css">.st0{fill:#93c4ca}.st1{fill:#8cbac0}.st2{fill:#5bb6c8}.st3{fill:#87b3b9}.st4{fill:#54a7b7}.st5{fill:#fdba54}.st6{fill:#57aebe}.st7{opacity:.25;fill:#93c4ca}.st8{fill:#efb050}.st9{opacity:.25;fill:#50a6b7}.st10{clip-path:url(#SVGID_2_)}.st11{fill:none}.st12{fill:#fff}.st13{font-family:&apos;Rajdhani-Semibold&apos;}.st14{font-size:150px}.st15{letter-spacing:2}.st16,.st17{clip-path:url(#SVGID_2_);fill:#93c4ca}.st17{fill:#5bb6c8}.st18{font-family:&apos;Rajdhani-Medium&apos;}.st19{font-size:50px}.st20{letter-spacing:-1}</style><g id="XMLID_1_"><g><polygon points="243.3 48 243.3 113 186.9 145.6 186.9 80.5" class="st0"/><polygon points="130.6 48 130.6 48 130.6 48 186.9 15.4 243.3 48 186.9 80.5" class="st1"/><polygon points="186.9 145.6 186.9 210.7 130.6 243.2 130.6 178.1" class="st2"/><polygon points="186.9 145.6 186.9 145.6 130.6 113.1 130.6 113.1" class="st0"/><polygon points="186.9 80.5 186.9 145.6 130.6 113.1" class="st3"/><polygon points="130.6 48 186.9 80.5 130.6 113.1 130.6 113 130.6 48" class="st3"/><polygon points="186.9 145.6 130.6 178.1 130.6 178.1 130.6 176.2 130.6 113.1 130.6 113.1" class="st4"/><polygon points="130.6 113.1 130.6 113.1 74.2 80.5 74.3 80.5 130.6 48 130.6 113 130.6 113.1 130.6 113.1" class="st5"/><polygon points="130.6 113.1 130.6 113.1 130.6 113.1" class="st3"/><polygon points="130.6 178.1 130.6 243.2 74.2 210.7 74.2 145.9 74.2 145.6" class="st6"/><polygon points="130.6 178.1 130.6 178.1 74.2 145.6 130.6 113.1 130.6 113.1 130.6 176.2" class="st4"/><polygon points="130.6 113.1 130.6 113.1 130.6 113.1" class="st4"/><polygon points="130.6 113.1 74.2 145.6 74.2 80.9 74.2 80.5" class="st5"/><polygon points="130.6 178.1 130.6 113.1 187 80.5 187 145.6" class="st7"/><polygon points="130.6 48 74.3 80.5 17.9 48 17.9 48 17.9 48 74.3 15.4" class="st8"/><polygon points="130.6 113.1 130.6 178.1 74.3 145.6 74.3 80.8 74.3 80.5 74.3 80.5" class="st9"/></g></g><g><defs><rect id="SVGID_1_" width="579.3" height="233" x="271" y="8.8"/></defs><clipPath id="SVGID_2_"><use xlink:href="#SVGID_1_" style="overflow:visible"/></clipPath><g class="st10"><rect width="352" height="150" x="271" y="23.8" class="st11"/><text class="st12 st13 st14 st15" transform="matrix(1 0 0 1 270.9585 129.2549)">Data</text></g><g class="st10"><rect width="352" height="150" x="508.3" y="119.9" class="st11"/><text class="st12 st13 st14 st15" transform="matrix(1 0 0 1 508.292 225.3384)">Joint</text></g><rect width="45.5" height="45.5" x="560.5" y="81.1" class="st16"/><rect width="45.5" height="45.5" x="512.4" y="131.3" class="st17"/><g class="st10"><rect width="293" height="51" x="606" y="78.3" class="st11"/><text class="st2 st18 st19 st20" transform="matrix(1 0 0 1 606.042 113.4561)">open source</text></g></g></svg>